<?xml version="1.0" encoding="UTF-8" standalone="no"?>
<!-- Generator: Adobe Illustrator 16.0.0, SVG Export Plug-In . SVG Version: 6.00 Build 0)  -->

<svg
   xmlns:dc="http://purl.org/dc/elements/1.1/"
   xmlns:cc="http://creativecommons.org/ns#"
   xmlns:rdf="http://www.w3.org/1999/02/22-rdf-syntax-ns#"
   xmlns:svg="http://www.w3.org/2000/svg"
   xmlns="http://www.w3.org/2000/svg"
   xmlns:sodipodi="http://sodipodi.sourceforge.net/DTD/sodipodi-0.dtd"
   xmlns:inkscape="http://www.inkscape.org/namespaces/inkscape"
   version="1.1"
   id="Capa_1"
   x="0px"
   y="0px"
   width="512px"
   height="512px"
   viewBox="0 0 31.834 31.834"
   style="enable-background:new 0 0 31.834 31.834;"
   xml:space="preserve"
   sodipodi:docname="handicap.svg"
   inkscape:version="0.92.3 (2405546, 2018-03-11)"><metadata
   id="metadata47"><rdf:RDF><cc:Work
       rdf:about=""><dc:format>image/svg+xml</dc:format><dc:type
         rdf:resource="http://purl.org/dc/dcmitype/StillImage" /><dc:title></dc:title></cc:Work></rdf:RDF></metadata><defs
   id="defs45" /><sodipodi:namedview
   pagecolor="#ffffff"
   bordercolor="#666666"
   borderopacity="1"
   objecttolerance="10"
   gridtolerance="10"
   guidetolerance="10"
   inkscape:pageopacity="0"
   inkscape:pageshadow="2"
   inkscape:window-width="1484"
   inkscape:window-height="946"
   id="namedview43"
   showgrid="false"
   inkscape:zoom="0.65186406"
   inkscape:cx="165.19336"
   inkscape:cy="167.09445"
   inkscape:window-x="0"
   inkscape:window-y="0"
   inkscape:window-maximized="0"
   inkscape:current-layer="Capa_1" />
<g
   id="g10"
   style="fill:#ffffff;fill-opacity:1">
	<g
   id="g8"
   style="fill:#ffffff;fill-opacity:1">
		<path
   d="M19.077,26.219c-1.494,1.838-3.781,3.012-6.361,3.012c-4.502,0-8.105-3.68-8.105-8.157c0-2.651,1.437-5.005,3.36-6.493    v-2.791c-3.254,1.766-5.775,5.227-5.775,9.246c0,5.802,4.716,10.599,10.551,10.599c3.767,0,7.035-2.067,8.896-4.929    c-0.137-0.312-0.291-0.614-0.441-0.919C20.496,25.951,19.789,26.094,19.077,26.219z"
   fill="#FFFFFF"
   id="path2"
   style="fill:#ffffff;fill-opacity:1" />
		<ellipse
   cx="13.089"
   cy="3.745"
   rx="3.766"
   ry="3.745"
   fill="#FFFFFF"
   id="ellipse4"
   style="fill:#ffffff;fill-opacity:1" />
		<path
   d="M29.441,28.471l-3.933-9.099c-0.461-1.065-1.619-1.649-2.752-1.392l-7.921,1.824l-0.009-8.517    c-0.002-1.33-1.08-2.43-2.409-2.43c0,0-0.002,0-0.003,0c-1.33,0-2.406,1.105-2.406,2.434L10.02,22.82    c0,0.732,0.336,1.433,0.91,1.889c0.574,0.457,1.326,0.632,2.038,0.466l8.916-2.052l3.135,7.257    c0.395,0.91,1.281,1.454,2.213,1.454c0.318,0,0.644-0.062,0.955-0.198C29.407,31.109,29.967,29.691,29.441,28.471z"
   fill="#FFFFFF"
   id="path6"
   style="fill:#ffffff;fill-opacity:1" />
	</g>
</g>
<g
   id="g12">
</g>
<g
   id="g14">
</g>
<g
   id="g16">
</g>
<g
   id="g18">
</g>
<g
   id="g20">
</g>
<g
   id="g22">
</g>
<g
   id="g24">
</g>
<g
   id="g26">
</g>
<g
   id="g28">
</g>
<g
   id="g30">
</g>
<g
   id="g32">
</g>
<g
   id="g34">
</g>
<g
   id="g36">
</g>
<g
   id="g38">
</g>
<g
   id="g40">
</g>
</svg>