<?xml version="1.0" encoding="UTF-8" standalone="no"?>
<!-- Generator: Adobe Illustrator 16.0.0, SVG Export Plug-In . SVG Version: 6.00 Build 0)  -->

<svg
   xmlns:dc="http://purl.org/dc/elements/1.1/"
   xmlns:cc="http://creativecommons.org/ns#"
   xmlns:rdf="http://www.w3.org/1999/02/22-rdf-syntax-ns#"
   xmlns:svg="http://www.w3.org/2000/svg"
   xmlns="http://www.w3.org/2000/svg"
   xmlns:sodipodi="http://sodipodi.sourceforge.net/DTD/sodipodi-0.dtd"
   xmlns:inkscape="http://www.inkscape.org/namespaces/inkscape"
   version="1.1"
   id="Capa_1"
   x="0px"
   y="0px"
   width="512px"
   height="512px"
   viewBox="0 0 31.834 31.834"
   style="enable-background:new 0 0 31.834 31.834;"
   xml:space="preserve"
   sodipodi:docname="handicap-park.svg"
   inkscape:version="0.92.3 (2405546, 2018-03-11)"><metadata
   id="metadata47"><rdf:RDF><cc:Work
       rdf:about=""><dc:format>image/svg+xml</dc:format><dc:type
         rdf:resource="http://purl.org/dc/dcmitype/StillImage" /><dc:title></dc:title></cc:Work></rdf:RDF></metadata><defs
   id="defs45" /><sodipodi:namedview
   pagecolor="#ffffff"
   bordercolor="#666666"
   borderopacity="1"
   objecttolerance="10"
   gridtolerance="10"
   guidetolerance="10"
   inkscape:pageopacity="0"
   inkscape:pageshadow="2"
   inkscape:window-width="1484"
   inkscape:window-height="946"
   id="namedview43"
   showgrid="false"
   inkscape:zoom="0.65186406"
   inkscape:cx="165.19336"
   inkscape:cy="167.09445"
   inkscape:window-x="0"
   inkscape:window-y="0"
   inkscape:window-maximized="0"
   inkscape:current-layer="Capa_1" />
<g
   id="g10"
   style="fill:#ffffff;fill-opacity:1"
   transform="matrix(0.57908833,0,0,0.57908833,13.992277,13.063686)">
	<g
   id="g8"
   style="fill:#ffffff;fill-opacity:1">
		<path
   d="m 19.077,26.219 c -1.494,1.838 -3.781,3.012 -6.361,3.012 -4.502,0 -8.105,-3.68 -8.105,-8.157 0,-2.651 1.437,-5.005 3.36,-6.493 V 11.79 c -3.254,1.766 -5.775,5.227 -5.775,9.246 0,5.802 4.716,10.599 10.551,10.599 3.767,0 7.035,-2.067 8.896,-4.929 -0.137,-0.312 -0.291,-0.614 -0.441,-0.919 -0.706,0.164 -1.413,0.307 -2.125,0.432 z"
   id="path2"
   style="fill:#ffffff;fill-opacity:1"
   inkscape:connector-curvature="0" />
		<ellipse
   cx="13.089"
   cy="3.7449999"
   rx="3.766"
   ry="3.7449999"
   id="ellipse4"
   style="fill:#ffffff;fill-opacity:1" />
		<path
   d="M 29.441,28.471 25.508,19.372 C 25.047,18.307 23.889,17.723 22.756,17.98 l -7.921,1.824 -0.009,-8.517 c -0.002,-1.33 -1.08,-2.43 -2.409,-2.43 0,0 -0.002,0 -0.003,0 -1.33,0 -2.406,1.105 -2.406,2.434 L 10.02,22.82 c 0,0.732 0.336,1.433 0.91,1.889 0.574,0.457 1.326,0.632 2.038,0.466 l 8.916,-2.052 3.135,7.257 c 0.395,0.91 1.281,1.454 2.213,1.454 0.318,0 0.644,-0.062 0.955,-0.198 1.22,-0.527 1.78,-1.945 1.254,-3.165 z"
   id="path6"
   style="fill:#ffffff;fill-opacity:1"
   inkscape:connector-curvature="0" />
	</g>
</g>
<g
   id="g12">
</g>
<g
   id="g14">
</g>
<g
   id="g16">
</g>
<g
   id="g18">
</g>
<g
   id="g20">
</g>
<g
   id="g22">
</g>
<g
   id="g24">
</g>
<g
   id="g26">
</g>
<g
   id="g28">
</g>
<g
   id="g30">
</g>
<g
   id="g32">
</g>
<g
   id="g34">
</g>
<g
   id="g36">
</g>
<g
   id="g38">
</g>
<g
   id="g40">
</g>
<text
   xml:space="preserve"
   style="font-style:normal;font-weight:normal;font-size:40.0856781px;line-height:1.25;font-family:sans-serif;letter-spacing:0px;word-spacing:0px;fill:#ffffff;fill-opacity:1;stroke:none;stroke-width:1.00214195;"
   x="-2.7316077"
   y="29.369059"
   id="text4563"
   transform="scale(0.9309367,1.0741869)"><tspan
     sodipodi:role="line"
     id="tspan4561"
     x="-2.7316077"
     y="29.369059"
     style="stroke-width:1.00214195;fill:#ffffff;fill-opacity:1;">P</tspan></text>
</svg>